<svg xmlns="http://www.w3.org/2000/svg" xmlns:xlink="http://www.w3.org/1999/xlink" width="100" height="100" version="1.1" viewBox="0 0 100 100"><title>logo-google-play</title><defs><linearGradient id="linearGradient-1" x1="0%" x2="100.018%" y1="50.02%" y2="50.02%"><stop offset="0%" stop-color="#63BE6B"/><stop offset="50.6%" stop-color="#5BBC6A"/><stop offset="100%" stop-color="#4AB96A"/></linearGradient><linearGradient id="linearGradient-2" x1="-.027%" x2="99.942%" y1="50.012%" y2="50.012%"><stop offset="0%" stop-color="#3EC6F2"/><stop offset="100%" stop-color="#45AFE3"/></linearGradient><linearGradient id="linearGradient-3" x1=".042%" x2="99.989%" y1="50.037%" y2="50.037%"><stop offset="0%" stop-color="#FAA51A"/><stop offset="38.7%" stop-color="#FAB716"/><stop offset="74.1%" stop-color="#FAC412"/><stop offset="100%" stop-color="#FAC80F"/></linearGradient><linearGradient id="linearGradient-4" x1=".016%" x2="99.999%" y1="49.998%" y2="49.998%"><stop offset="0%" stop-color="#EC3B50"/><stop offset="100%" stop-color="#E7515B"/></linearGradient></defs><g id="logo-google-play" fill="none" fill-rule="evenodd" stroke="none" stroke-width="1"><g id="google-play-5" fill-rule="nonzero" transform="translate(19.000000, 9.000000)"><path id="Path" fill="url(#linearGradient-1)" d="M44.8995098,24.4143943 L2.57352941,0.223217841 C2.04166667,-0.0856056882 1.37254902,-0.0684488255 0.857843137,0.240374704 C0.325980392,0.549198233 0,1.09821784 0,1.7158649 C0,1.7158649 0.0171568627,3.94625706 0.0343137255,7.61782568 L30.8651961,38.448708 L44.8995098,24.4143943 Z"/><path id="Path" fill="url(#linearGradient-2)" d="M0.0343137255,7.61782568 C0.0857843137,20.8629237 0.240196078,53.0148845 0.308823529,69.0222374 L30.8823529,38.448708 L0.0343137255,7.61782568 Z"/><path id="Path" fill="url(#linearGradient-3)" d="M69.125,38.2599825 L44.8995098,24.4143943 L30.8480392,38.448708 L46.7009804,54.3016492 L69.1421569,41.2281198 C69.6740196,40.9192963 70,40.3531198 70,39.7526296 C70,39.1349825 69.6568627,38.5688061 69.125,38.2599825 Z"/><path id="Path" fill="url(#linearGradient-4)" d="M0.291666667,69.0222374 C0.325980392,74.7354727 0.343137255,78.3898845 0.343137255,78.3898845 C0.343137255,79.0075316 0.669117647,79.573708 1.20098039,79.8653747 C1.73284314,80.1741982 2.38480392,80.1741982 2.91666667,79.8653747 L46.7181373,54.3188061 L30.8651961,38.4658649 L0.291666667,69.0222374 Z"/></g></g></svg>